HIERARCHY
ROOT reference
{
  OFFSET 0 0 0
  CHANNELS 6 Xposition Yposition Zposition Zrotation Xrotation Yrotation
  JOINT Hips
  {
    OFFSET -20.7972 72.5035 -205.927
    CHANNELS 6 Xposition Yposition Zposition Zrotation Xrotation Yrotation
    JOINT Spine
    {
      OFFSET 0 7.52385 0
      CHANNELS 6 Xposition Yposition Zposition Zrotation Xrotation Yrotation
      JOINT Spine1
      {
        OFFSET 0 21.7843 0
        CHANNELS 6 Xposition Yposition Zposition Zrotation Xrotation Yrotation
        JOINT Neck
        {
          OFFSET 0 21.6948 1.97225
          CHANNELS 6 Xposition Yposition Zposition Zrotation Xrotation Yrotation
          JOINT Head
          {
            OFFSET 0 12.8456 -1.83509
            CHANNELS 6 Xposition Yposition Zposition Zrotation Xrotation Yrotation
            End Site
            {
              OFFSET 0 22.9386 0
            }
          }
        }
        JOINT LeftShoulder
        {
          OFFSET 3.65748 19.7052 -0.211895
          CHANNELS 6 Xposition Yposition Zposition Zrotation Xrotation Yrotation
          JOINT LeftArm
          {
            OFFSET 11.1953 0 0
            CHANNELS 6 Xposition Yposition Zposition Zrotation Xrotation Yrotation
            JOINT LeftForeArm
            {
              OFFSET 29.6607 0 0
              CHANNELS 6 Xposition Yposition Zposition Zrotation Xrotation Yrotation
              JOINT LeftHand
              {
                OFFSET 23.3476 0 0
                CHANNELS 6 Xposition Yposition Zposition Zrotation Xrotation Yrotation
                End Site
                {
                  OFFSET 13.7631 0 0
                }
              }
            }
          }
        }
        JOINT RightShoulder
        {
          OFFSET -3.68053 19.7052 -0.211895
          CHANNELS 6 Xposition Yposition Zposition Zrotation Xrotation Yrotation
          JOINT RightArm
          {
            OFFSET -11.1953 0 0
            CHANNELS 6 Xposition Yposition Zposition Zrotation Xrotation Yrotation
            JOINT RightForeArm
            {
              OFFSET -29.6607 0 0
              CHANNELS 6 Xposition Yposition Zposition Zrotation Xrotation Yrotation
              JOINT RightHand
              {
                OFFSET -23.3476 0 0
                CHANNELS 6 Xposition Yposition Zposition Zrotation Xrotation Yrotation
                End Site
                {
                  OFFSET -13.7631 0 0
                }
              }
            }
          }
        }
      }
    }
    JOINT LeftUpLeg
    {
      OFFSET 9.17543 0 0
      CHANNELS 6 Xposition Yposition Zposition Zrotation Xrotation Yrotation
      JOINT LeftLeg
      {
        OFFSET 0 -39.1216 0
        CHANNELS 6 Xposition Yposition Zposition Zrotation Xrotation Yrotation
        JOINT LeftFoot
        {
          OFFSET 0 -35.3569 0
          CHANNELS 6 Xposition Yposition Zposition Zrotation Xrotation Yrotation
          JOINT LeftToeBase
          {
            OFFSET 0 -5.96403 13.7631
            CHANNELS 6 Xposition Yposition Zposition Zrotation Xrotation Yrotation
            End Site
            {
              OFFSET 0 0 3.67017
            }
          }
        }
      }
    }
    JOINT RightUpLeg
    {
      OFFSET -9.17543 0 0
      CHANNELS 6 Xposition Yposition Zposition Zrotation Xrotation Yrotation
      JOINT RightLeg
      {
        OFFSET 0 -39.1216 0
        CHANNELS 6 Xposition Yposition Zposition Zrotation Xrotation Yrotation
        JOINT RightFoot
        {
          OFFSET 0 -35.3569 0
          CHANNELS 6 Xposition Yposition Zposition Zrotation Xrotation Yrotation
          JOINT RightToeBase
          {
            OFFSET 0 -5.96403 13.7631
            CHANNELS 6 Xposition Yposition Zposition Zrotation Xrotation Yrotation
            End Site
            {
              OFFSET 0 0 3.67017
            }
          }
        }
      }
    }
  }
}
MOTION
Frames:	9
Frame Time:	0.004
0 0 0 0 0 -0 -14.1532 74.9063 -213.364 -0.369576 -12.3215 1.77925 0 7.52385 0 1.0168 8.51069 -2.04701 0 21.7843 -2.84217e-014 2.22158 -2.23608 -1.92952 0 21.6948 1.97225 -1.56321 13.0858 1.66609 -3.55271e-015 12.8456 -1.83509 -2.32753 5.01685 1.54926 3.65748 19.7052 -0.211895 17.9647 -3.27144 -3.19991 11.1953 -2.84217e-014 0 -23.4373 7.49399 -4.29175 29.6607 0 0 1.33371 -1.76768 -0.859773 23.3476 0 0 6.77698 -1.73398 0.401275 -3.68053 19.7052 -0.211895 -17.2719 0.03923 -0.228442 -11.1953 0 0 26.1353 6.75811 11.2267 -29.6607 1.42109e-014 0 -5.0601 -2.13164 5.08635 -23.3476 -2.84217e-014 0 -6.58267 -1.73717 -2.95201 9.17543 1.42109e-014 2.84217e-014 5.41556 16.4524 2.7693 3.55271e-015 -39.1216 -2.84217e-014 -1.04567 0.866155 4.60195 -7.10543e-015 -35.3569 -2.84217e-014 -1.0372 -8.98131 9.43872 1.42109e-014 -5.96403 13.7631 -3.97569e-016 7.95139e-016 -0 -9.17543 1.42109e-014 0 -5.39287 15.3798 2.22418 0 -39.1216 0 0.0748192 1.739 1.24872 0 -35.3569 0 3.83377 -8.77204 -22.4149 0 -5.96403 13.7631 -1.98785e-016 0 -0 
0 0 0 0 0 -0 -14.1532 74.9063 -213.364 -0.369229 -12.3324 1.77932 0 7.52385 0 1.01716 8.5207 -2.04706 -1.77636e-015 21.7843 0 2.22158 -2.23608 -1.92952 0 21.6948 1.97225 -1.56357 13.085 1.67227 0 12.8456 -1.83509 -2.33439 4.97737 1.55422 3.65748 19.7052 -0.211895 17.963 -3.28969 -3.21233 11.1953 2.84217e-014 0 -23.4199 7.49411 -4.27918 29.6607 0 0 1.33438 -1.74372 -0.849311 23.3476 0 2.84217e-014 6.84454 -1.70959 0.405481 -3.68053 19.7052 -0.211895 -17.2719 0.02969 -0.228442 -11.1953 0 2.84217e-014 26.1567 6.75521 11.2266 -29.6607 -2.84217e-014 2.84217e-014 -5.07437 -2.13728 5.06339 -23.3476 2.84217e-014 2.84217e-014 -6.44478 -1.74788 -2.93269 9.17543 -1.42109e-014 0 5.41493 16.463 2.76979 -3.55271e-015 -39.1216 0 -1.04542 0.866175 4.58574 0 -35.3569 0 -1.0436 -8.99259 9.44428 0 -5.96403 13.7631 -4.41391e-032 -7.95139e-016 -3.18055e-015 -9.17543 0 -2.84217e-014 -5.39697 15.391 2.23803 0 -39.1216 0 0.0747193 1.73899 1.25201 0 -35.3569 0 3.86553 -8.79452 -22.4406 -1.42109e-014 -5.96403 13.7631 1.98785e-016 0 3.18055e-015 
0 0 0 0 0 -0 -14.1532 74.9063 -213.364 -0.369812 -12.314 1.7792 0 7.52385 2.84217e-014 1.01539 8.5018 -2.04696 0 21.7843 0 2.22158 -2.23608 -1.92952 0 21.6948 1.97225 -1.58533 12.9579 1.69756 0 12.8456 -1.83509 -2.28195 5.18094 1.59237 3.65748 19.7052 -0.211895 17.9624 -3.30347 -3.2094 11.1953 0 2.84217e-014 -23.4157 7.48038 -4.27388 29.6607 0 0 1.33504 -1.72591 -0.836144 23.3476 -2.84217e-014 0 6.87149 -1.69273 0.391251 -3.68053 19.7052 -0.211895 -17.2719 0.028011 -0.226127 -11.1953 0 0 26.1674 6.73952 11.227 -29.6607 0 0 -5.06845 -2.14347 5.06232 -23.3476 0 0 -6.4572 -1.75387 -2.93553 9.17543 0 2.84217e-014 5.42239 16.4472 2.75544 0 -39.1216 0 -1.04538 0.866178 4.58297 7.10543e-015 -35.3569 0 -1.0323 -8.98662 9.46088 0 -5.96403 13.7631 -1.98785e-016 7.95139e-016 -3.18055e-015 -9.17543 1.42109e-014 2.84217e-014 -5.39487 15.3716 2.23287 0 -39.1216 0 0.0743069 1.73898 1.2656 3.55271e-015 -35.3569 -2.84217e-014 3.81743 -8.77448 -22.4391 0 -5.96403 13.7631 1.98785e-016 7.95139e-016 -6.36111e-015 
0 0 0 0 0 -0 -14.1532 74.9063 -213.364 -0.369571 -12.3216 1.77925 0 7.52385 0 1.01379 8.50919 -2.047 0 21.7843 0 2.22206 -2.23608 -1.92952 0 21.6948 1.97225 -1.56375 13.0753 1.67965 0 12.8456 -1.83509 -2.34044 4.95409 1.56096 3.65748 19.7052 -0.211895 17.9625 -3.30843 -3.20231 11.1953 0 -2.84217e-014 -23.4092 7.49908 -4.28484 29.6607 0 -2.84217e-014 1.34586 -1.72144 -0.835578 23.3476 0 0 6.87032 -1.68747 0.402899 -3.68053 19.7052 -0.211895 -17.2719 0.049453 -0.241786 -11.1953 0 -2.84217e-014 26.172 6.7232 11.2426 -29.6607 -1.42109e-014 -2.84217e-014 -5.06508 -2.15294 5.06163 -23.3476 0 -2.84217e-014 -6.42579 -1.76401 -2.93789 9.17543 -1.42109e-014 0 5.42014 16.4498 2.76755 0 -39.1216 2.84217e-014 -1.04574 0.871626 4.57778 0 -35.3569 2.84217e-014 -1.11545 -9.02738 9.47977 0 -5.96403 13.7631 -5.96354e-016 0 6.36111e-015 -9.17543 0 -2.84217e-014 -5.39642 15.3791 2.23765 -3.55271e-015 -39.1216 0 0.0743948 1.73899 1.26271 -5.32907e-015 -35.3569 -2.84217e-014 3.85475 -8.78601 -22.4438 0 -5.96403 13.7631 0 7.95139e-016 -0 
0 0 0 0 0 -0 -14.1532 74.9063 -213.364 -0.369425 -12.3262 1.77928 -1.77636e-015 7.52385 0 1.01208 8.5136 -2.04703 0 21.7843 2.84217e-014 2.23295 -2.23608 -1.92952 0 21.6948 1.97225 -1.5754 13.0743 1.68813 0 12.8456 -1.83509 -2.33757 4.93224 1.57002 3.65748 19.7052 -0.211895 17.9598 -3.30586 -3.20179 11.1953 0 -2.84217e-014 -23.3991 7.47487 -4.27694 29.6607 0 0 1.33764 -1.70195 -0.823894 23.3476 2.84217e-014 2.84217e-014 6.89884 -1.66817 0.400929 -3.68053 19.7052 -0.211895 -17.2721 0.034411 -0.237906 -11.1953 2.84217e-014 2.84217e-014 26.1885 6.72179 11.2357 -29.6607 -2.84217e-014 0 -5.06371 -2.17905 5.06094 -23.3476 -2.84217e-014 -2.84217e-014 -6.47706 -1.78781 -2.96259 9.17543 0 0 5.42003 16.452 2.77247 0 -39.1216 2.84217e-014 -1.0468 0.88065 4.59978 0 -35.3569 0 -1.03581 -9.00123 9.42793 -1.42109e-014 -5.96403 13.7631 -0 0 6.36111e-015 -9.17543 0 -2.84217e-014 -5.39758 15.3849 2.24121 0 -39.1216 0 0.0745729 1.73899 1.25684 0 -35.3569 2.84217e-014 3.84864 -8.78913 -22.438 0 -5.96403 13.7631 3.97569e-016 -7.95139e-016 3.18055e-015 
0 0 0 0 0 -0 -14.1532 74.9063 -213.363 -0.36942 -12.3264 1.77928 0 7.52385 -2.84217e-014 1.01022 8.51661 -2.04704 -1.77636e-015 21.7843 0 2.23381 -2.23494 -1.92951 0 21.6948 1.97225 -1.58106 13.0678 1.68705 0 12.8456 -1.83509 -2.32774 4.92342 1.56999 3.65748 19.7052 -0.211895 17.9672 -3.32302 -3.20165 11.1953 0 0 -23.3956 7.46802 -4.27322 29.6607 0 -2.84217e-014 1.33379 -1.69402 -0.819395 23.3476 0 0 6.94686 -1.65954 0.400703 -3.68053 19.7052 -0.211895 -17.2727 0.030293 -0.246814 -11.1953 0 2.84217e-014 26.2049 6.72847 11.2368 -29.6607 1.42109e-014 0 -5.07732 -2.19984 5.06057 -23.3476 0 0 -6.43421 -1.80865 -2.96481 9.17543 0 0 5.42004 16.4545 2.77702 0 -39.1216 0 -1.04626 0.870186 4.61919 0 -35.3569 -2.84217e-014 -1.04192 -8.99049 9.41038 0 -5.96403 13.7631 3.97569e-016 0 -0 -9.17543 1.42109e-014 -2.84217e-014 -5.39438 15.3862 2.22899 3.55271e-015 -39.1216 2.84217e-014 0.0747017 1.73899 1.25259 3.55271e-015 -35.3569 0 3.83246 -8.78865 -22.4146 0 -5.96403 13.7631 0 0 -0 
0 0 0 0 0 -0 -14.1532 74.9063 -213.362 -0.369416 -12.3265 1.77928 0 7.52385 2.84217e-014 1.00814 8.51765 -2.04705 -1.77636e-015 21.7843 -2.84217e-014 2.221 -2.24797 -1.92953 0 21.6948 1.97225 -1.57713 13.0613 1.70244 1.77636e-015 12.8456 -1.83509 -2.32367 4.92352 1.58636 3.65748 19.7052 -0.211895 17.972 -3.30278 -3.20162 11.1953 0 -2.84217e-014 -23.3756 7.45269 -4.28724 29.6607 0 0 1.31819 -1.68988 -0.803295 23.3476 0 -2.84217e-014 6.99018 -1.65568 0.400801 -3.68053 19.7052 -0.211895 -17.2613 0.0317369 -0.244116 -11.1953 0 0 26.2094 6.69946 11.2378 -29.6607 0 -2.84217e-014 -5.06607 -2.21775 5.06092 -23.3476 -2.84217e-014 0 -6.39354 -1.82723 -2.9843 9.17543 0 2.84217e-014 5.42004 16.4571 2.78156 0 -39.1216 -2.84217e-014 -1.04535 0.869025 4.56592 0 -35.3569 2.84217e-014 -1.02381 -8.99402 9.45515 0 -5.96403 13.7631 -1.98785e-016 7.95139e-016 -0 -9.17543 0 0 -5.39536 15.3872 2.23251 0 -39.1216 2.84217e-014 0.0738834 1.73898 1.27956 1.77636e-015 -35.3569 -2.84217e-014 3.83103 -8.78445 -22.4397 0 -5.96403 13.7631 0 0 -6.36111e-015 
0 0 0 0 0 -0 -14.1531 74.9063 -213.361 -0.369414 -12.3266 1.77928 -1.77636e-015 7.52385 -2.84217e-014 1.00553 8.51018 -2.04701 0 21.7843 2.84217e-014 2.22791 -2.24063 -1.92952 -3.55271e-015 21.6948 1.97225 -1.58475 13.0586 1.69654 -1.77636e-015 12.8456 -1.83509 -2.32155 4.90463 1.58034 3.65748 19.7052 -0.211895 17.9789 -3.32265 -3.20189 11.1953 0 0 -23.3769 7.45089 -4.28367 29.6607 2.84217e-014 2.84217e-014 1.31993 -1.67394 -0.789223 23.3476 0 0 6.9827 -1.64042 0.400821 -3.68053 19.7052 -0.211895 -17.2656 0.0338753 -0.263107 -11.1953 0 0 26.2256 6.68122 11.2395 -29.6607 0 2.84217e-014 -5.06775 -2.23907 5.06662 -23.3476 2.84217e-014 0 -6.36964 -1.84841 -2.99191 9.17543 0 0 5.42022 16.4597 2.78525 0 -39.1216 0 -1.04642 0.877618 4.59076 0 -35.3569 0 -1.04992 -9.0007 9.41263 0 -5.96403 13.7631 5.96354e-016 0 -0 -9.17543 1.42109e-014 -2.84217e-014 -5.39911 15.3881 2.24649 -3.55271e-015 -39.1216 0 0.0743796 1.73899 1.26321 1.77636e-015 -35.3569 0 3.83319 -8.78161 -22.4403 -1.42109e-014 -5.96403 13.7631 -1.98785e-016 1.59028e-015 3.18055e-015 
0 0 0 0 0 -0 -14.1523 74.9062 -213.36 -0.369412 -12.3266 1.77928 1.77636e-015 7.52385 0 1.00057 8.50303 -2.04697 -1.77636e-015 21.7843 -2.84217e-014 2.22635 -2.23973 -1.92952 0 21.6948 1.97225 -1.56737 13.0693 1.70168 0 12.8456 -1.83509 -2.35345 4.88032 1.57783 3.65748 19.7052 -0.211895 17.9789 -3.3236 -3.20217 11.1953 0 0 -23.3588 7.4267 -4.28394 29.6607 0 2.84217e-014 1.29798 -1.649 -0.774223 23.3476 -2.84217e-014 0 7.03364 -1.61562 0.400335 -3.68053 19.7052 -0.211895 -17.2627 0.0362959 -0.259392 -11.1953 0 0 26.2447 6.64531 11.2409 -29.6607 0 0 -5.07599 -2.25855 5.07354 -23.3476 0 -2.84217e-014 -6.31632 -1.86799 -3.00421 9.17543 -1.42109e-014 0 5.42152 16.4619 2.78471 0 -39.1216 0 -1.04464 0.86248 4.55343 0 -35.3569 0 -1.03164 -8.99394 9.45559 -1.42109e-014 -5.96403 13.7631 -1.98785e-016 1.59028e-015 6.36111e-015 -9.17543 -1.42109e-014 -2.84217e-014 -5.40191 15.3889 2.25692 0 -39.1216 0 0.0745885 1.73899 1.25632 -1.77636e-015 -35.3569 2.84217e-014 3.81894 -8.77936 -22.438 1.42109e-014 -5.96403 13.7631 -1.98785e-016 1.59028e-015 3.18055e-015 
